<svg width="36" height="36" viewBox="0 0 36 36" fill="none" xmlns="http://www.w3.org/2000/svg">
<rect x="27" y="13.5" width="6" height="6" rx="3" transform="rotate(90 27 13.5)" stroke="#EF5DA8" stroke-width="1.5"/>
<rect x="27" y="25.5" width="6" height="6" rx="3" transform="rotate(90 27 25.5)" stroke="#EF5DA8" stroke-width="1.5"/>
<rect x="4.5" y="10.5" width="6" height="6" rx="3" transform="rotate(-90 4.5 10.5)" stroke="#EF5DA8" stroke-width="1.5"/>
<path d="M7.5 12V22.5C7.5 25.3284 7.5 26.7426 8.37868 27.6213C9.25736 28.5 10.6716 28.5 13.5 28.5H21" stroke="#EF5DA8" stroke-width="1.5"/>
<path d="M7.5 10.5V10.5C7.5 13.3284 7.5 14.7426 8.37868 15.6213C8.37868 15.6213 8.37868 15.6213 8.37868 15.6213C9.25736 16.5 10.6716 16.5 13.5 16.5H21" stroke="#EF5DA8" stroke-width="1.5"/>
</svg>
